# xmcd CD database file
#
# Track frame offsets:
#	182
#	22622
#	46590
#	73835
#	94960
#	128990
#	159540
#	195615
#
# Disc length: 3089 seconds
#
# Revision: 0
# Processed by: cddbd v1.5.1PL0 Copyright (c) Steve Scherf et al.
# Submitted via: CDex 1.51
#
DISCID=610c0f08
DTITLE=Robert Plant - Fate Of The World
DYEAR=1993
DGENRE=Blues
TTITLE0=Tall Cool One
TTITLE1=Ramble On
TTITLE2=29 Palms
TTITLE3=Going To California
TTITLE4=Promised Land
TTITLE5=What Is And What Should Never Be
TTITLE6=Ship Of Fools
TTITLE7=Whole Lotta Love
EXTD=YEAR: 1993
EXTT0=
EXTT1=
EXTT2=
EXTT3=
EXTT4=
EXTT5=
EXTT6=
EXTT7=
PLAYORDER=
